{"accessors":[{"bufferView":0,"componentType":5126,"count":149,"min":[-1.305349349975586,-1.2482450008392335,-1.172311544418335],"max":[4.55764627456665,4.614750862121582,0.24999099969863892],"type":"VEC3","name":"x6_Airframe_vertices#0_POSITION"},{"bufferView":0,"byteOffset":12,"componentType":5120,"count":149,"type":"VEC4","name":"x6_Airframe_vertices#0_TANGENT"},{"bufferView":0,"byteOffset":16,"componentType":5120,"count":149,"type":"VEC4","name":"x6_Airframe_vertices#0_NORMAL"},{"bufferView":0,"byteOffset":20,"componentType":5122,"count":149,"type":"VEC2","name":"x6_Airframe_vertices#0_TEXCOORD_0"},{"bufferView":0,"byteOffset":24,"componentType":5122,"count":149,"type":"VEC2","name":"x6_Airframe_vertices#0_TEXCOORD_1"},{"bufferView":0,"byteOffset":28,"componentType":5123,"count":149,"type":"VEC4","name":"x6_Airframe_vertices#0_COLOR_0"},{"bufferView":1,"componentType":5123,"count":324,"type":"SCALAR","name":"x6_Airframe_indices#0"}],"asset":{"generator":"babylon.js glTF exporter for 3dsmax 2019 v1.0.7760.27597","version":"2.0","extensions":{"ASOBO_asset_optimized":{"BoundingBoxMax":[4.55764627456665,4.614750862121582,0.24999099969863892],"BoundingBoxMin":[-1.305349349975586,-1.2482450008392335,-1.172311544418335],"MajorVersion":4,"MinorVersion":2},"ASOBO_normal_map_convention":{"tangent_space_convention":"DirectX"}}},"bufferViews":[{"buffer":0,"byteLength":5364,"byteStride":36,"target":34962,"name":"BufferViewVertexND"},{"buffer":0,"byteLength":648,"byteOffset":5364,"target":34963,"name":"BufferViewIndex"}],"extensionsUsed":["ASOBO_normal_map_convention","ASOBO_unique_id","MSFT_texture_dds","ASOBO_asset_optimized"],"extensionsRequired":["MSFT_texture_dds"],"materials":[{"name":"LOD6","occlusionTexture":{"index":1},"pbrMetallicRoughness":{"baseColorFactor":[0.792156935,0.792156935,0.7843138,1.0],"metallicFactor":0.0,"roughnessFactor":0.1,"baseColorTexture":{"index":0},"metallicRoughnessTexture":{"index":1}}}],"meshes":[{"primitives":[{"attributes":{"COLOR_0":5,"NORMAL":2,"POSITION":0,"TANGENT":1,"TEXCOORD_0":3,"TEXCOORD_1":4},"indices":6,"material":0,"mode":4,"extras":{"ASOBO_primitive":{"PrimitiveCount":108,"VertexType":"VTX","VertexVersion":2}}}],"name":"x6_Airframe"}],"nodes":[{"translation":[0.08769369,0.0,-7.55785656],"rotation":[0.653281569,-0.270598024,0.270598054,0.65328145],"scale":[2.51897526,2.51897526,2.518975],"mesh":0,"extensions":{"ASOBO_unique_id":{"id":"x6_Airframe"}},"name":"Airframe"}],"scene":0,"scenes":[{"nodes":[0]}],"textures":[{"extensions":{"MSFT_texture_dds":{"source":0}}},{"extensions":{"MSFT_texture_dds":{"source":1}}}],"buffers":[{"byteLength":6012,"uri":"KINGAIR_350I_LOD6.bin"}],"images":[{"uri":"KINGAIR350I_AIRFRAME_LOD6_ALBD.PNG.DDS","extras":"ASOBO_image_converted_meta"},{"uri":"KINGAIR350I_AIRFRAME_LOD6_COMP.PNG.DDS","extras":"ASOBO_image_converted_meta"}]}
