{"accessors":[{"bufferView":0,"componentType":5126,"count":201,"min":[0.0],"max":[6.66666651],"type":"SCALAR","name":"accessorAnimationInput"},{"bufferView":1,"componentType":5126,"count":201,"type":"VEC4","name":"accessorAnimationRotations"},{"bufferView":0,"byteOffset":804,"componentType":5126,"count":201,"min":[0.0],"max":[6.66666651],"type":"SCALAR","name":"accessorAnimationInput"},{"bufferView":2,"componentType":5126,"count":201,"type":"VEC3","name":"accessorAnimationPositions"},{"bufferView":0,"byteOffset":1608,"componentType":5126,"count":201,"min":[0.0],"max":[6.66666651],"type":"SCALAR","name":"accessorAnimationInput"},{"bufferView":1,"byteOffset":3216,"componentType":5126,"count":201,"type":"VEC4","name":"accessorAnimationRotations"},{"bufferView":0,"byteOffset":2412,"componentType":5126,"count":161,"min":[0.0],"max":[5.33333349],"type":"SCALAR","name":"accessorAnimationInput"},{"bufferView":2,"byteOffset":2412,"componentType":5126,"count":161,"type":"VEC3","name":"accessorAnimationPositions"},{"bufferView":0,"byteOffset":3056,"componentType":5126,"count":161,"min":[0.0],"max":[5.33333349],"type":"SCALAR","name":"accessorAnimationInput"},{"bufferView":1,"byteOffset":6432,"componentType":5126,"count":161,"type":"VEC4","name":"accessorAnimationRotations"},{"bufferView":0,"byteOffset":3700,"componentType":5126,"count":161,"min":[0.0],"max":[5.33333349],"type":"SCALAR","name":"accessorAnimationInput"},{"bufferView":2,"byteOffset":4344,"componentType":5126,"count":161,"type":"VEC3","name":"accessorAnimationPositions"},{"bufferView":0,"byteOffset":4344,"componentType":5126,"count":161,"min":[0.0],"max":[5.33333349],"type":"SCALAR","name":"accessorAnimationInput"},{"bufferView":1,"byteOffset":9008,"componentType":5126,"count":161,"type":"VEC4","name":"accessorAnimationRotations"},{"bufferView":0,"byteOffset":4988,"componentType":5126,"count":161,"min":[0.0],"max":[5.33333349],"type":"SCALAR","name":"accessorAnimationInput"},{"bufferView":2,"byteOffset":6276,"componentType":5126,"count":161,"type":"VEC3","name":"accessorAnimationScales"},{"bufferView":0,"byteOffset":5632,"componentType":5126,"count":161,"min":[0.0],"max":[5.33333349],"type":"SCALAR","name":"accessorAnimationInput"},{"bufferView":2,"byteOffset":8208,"componentType":5126,"count":161,"type":"VEC3","name":"accessorAnimationPositions"},{"bufferView":0,"byteOffset":6276,"componentType":5126,"count":161,"min":[0.0],"max":[5.33333349],"type":"SCALAR","name":"accessorAnimationInput"},{"bufferView":1,"byteOffset":11584,"componentType":5126,"count":161,"type":"VEC4","name":"accessorAnimationRotations"},{"bufferView":0,"byteOffset":6920,"componentType":5126,"count":161,"min":[0.0],"max":[5.33333349],"type":"SCALAR","name":"accessorAnimationInput"},{"bufferView":2,"byteOffset":10140,"componentType":5126,"count":161,"type":"VEC3","name":"accessorAnimationPositions"},{"bufferView":0,"byteOffset":7564,"componentType":5126,"count":181,"min":[0.0],"max":[6.0],"type":"SCALAR","name":"accessorAnimationInput"},{"bufferView":2,"byteOffset":12072,"componentType":5126,"count":181,"type":"VEC3","name":"accessorAnimationPositions"},{"bufferView":0,"byteOffset":8288,"componentType":5126,"count":181,"min":[0.0],"max":[6.0],"type":"SCALAR","name":"accessorAnimationInput"},{"bufferView":1,"byteOffset":14160,"componentType":5126,"count":181,"type":"VEC4","name":"accessorAnimationRotations"},{"bufferView":0,"byteOffset":9012,"componentType":5126,"count":181,"min":[0.0],"max":[6.0],"type":"SCALAR","name":"accessorAnimationInput"},{"bufferView":2,"byteOffset":14244,"componentType":5126,"count":181,"type":"VEC3","name":"accessorAnimationPositions"},{"bufferView":0,"byteOffset":9736,"componentType":5126,"count":181,"min":[0.0],"max":[6.0],"type":"SCALAR","name":"accessorAnimationInput"},{"bufferView":1,"byteOffset":17056,"componentType":5126,"count":181,"type":"VEC4","name":"accessorAnimationRotations"},{"bufferView":0,"byteOffset":10460,"componentType":5126,"count":181,"min":[0.0],"max":[6.0],"type":"SCALAR","name":"accessorAnimationInput"},{"bufferView":2,"byteOffset":16416,"componentType":5126,"count":181,"type":"VEC3","name":"accessorAnimationScales"},{"bufferView":0,"byteOffset":11184,"componentType":5126,"count":161,"min":[0.0],"max":[5.33333349],"type":"SCALAR","name":"accessorAnimationInput"},{"bufferView":2,"byteOffset":18588,"componentType":5126,"count":161,"type":"VEC3","name":"accessorAnimationPositions"},{"bufferView":0,"byteOffset":11828,"componentType":5126,"count":161,"min":[0.0],"max":[5.33333349],"type":"SCALAR","name":"accessorAnimationInput"},{"bufferView":1,"byteOffset":19952,"componentType":5126,"count":161,"type":"VEC4","name":"accessorAnimationRotations"},{"bufferView":0,"byteOffset":12472,"componentType":5126,"count":161,"min":[0.0],"max":[5.33333349],"type":"SCALAR","name":"accessorAnimationInput"},{"bufferView":2,"byteOffset":20520,"componentType":5126,"count":161,"type":"VEC3","name":"accessorAnimationPositions"},{"bufferView":0,"byteOffset":13116,"componentType":5126,"count":181,"min":[0.0],"max":[6.0],"type":"SCALAR","name":"accessorAnimationInput"},{"bufferView":2,"byteOffset":22452,"componentType":5126,"count":181,"type":"VEC3","name":"accessorAnimationPositions"},{"bufferView":0,"byteOffset":13840,"componentType":5126,"count":181,"min":[0.0],"max":[6.0],"type":"SCALAR","name":"accessorAnimationInput"},{"bufferView":1,"byteOffset":22528,"componentType":5126,"count":181,"type":"VEC4","name":"accessorAnimationRotations"},{"bufferView":0,"byteOffset":14564,"componentType":5126,"count":181,"min":[0.0],"max":[6.0],"type":"SCALAR","name":"accessorAnimationInput"},{"bufferView":2,"byteOffset":24624,"componentType":5126,"count":181,"type":"VEC3","name":"accessorAnimationScales"},{"bufferView":0,"byteOffset":15288,"componentType":5126,"count":181,"min":[0.0],"max":[6.0],"type":"SCALAR","name":"accessorAnimationInput"},{"bufferView":2,"byteOffset":26796,"componentType":5126,"count":181,"type":"VEC3","name":"accessorAnimationPositions"},{"bufferView":0,"byteOffset":16012,"componentType":5126,"count":181,"min":[0.0],"max":[6.0],"type":"SCALAR","name":"accessorAnimationInput"},{"bufferView":1,"byteOffset":25424,"componentType":5126,"count":181,"type":"VEC4","name":"accessorAnimationRotations"},{"bufferView":0,"byteOffset":16736,"componentType":5126,"count":161,"min":[0.0],"max":[5.33333349],"type":"SCALAR","name":"accessorAnimationInput"},{"bufferView":2,"byteOffset":28968,"componentType":5126,"count":161,"type":"VEC3","name":"accessorAnimationPositions"},{"bufferView":0,"byteOffset":17380,"componentType":5126,"count":161,"min":[0.0],"max":[5.33333349],"type":"SCALAR","name":"accessorAnimationInput"},{"bufferView":1,"byteOffset":28320,"componentType":5126,"count":161,"type":"VEC4","name":"accessorAnimationRotations"},{"bufferView":0,"byteOffset":18024,"componentType":5126,"count":161,"min":[0.0],"max":[5.33333349],"type":"SCALAR","name":"accessorAnimationInput"},{"bufferView":2,"byteOffset":30900,"componentType":5126,"count":161,"type":"VEC3","name":"accessorAnimationPositions"},{"bufferView":0,"byteOffset":18668,"componentType":5126,"count":161,"min":[0.0],"max":[5.33333349],"type":"SCALAR","name":"accessorAnimationInput"},{"bufferView":1,"byteOffset":30896,"componentType":5126,"count":161,"type":"VEC4","name":"accessorAnimationRotations"},{"bufferView":0,"byteOffset":19312,"componentType":5126,"count":161,"min":[0.0],"max":[5.33333349],"type":"SCALAR","name":"accessorAnimationInput"},{"bufferView":2,"byteOffset":32832,"componentType":5126,"count":161,"type":"VEC3","name":"accessorAnimationScales"},{"bufferView":0,"byteOffset":19956,"componentType":5126,"count":181,"min":[0.0],"max":[6.0],"type":"SCALAR","name":"accessorAnimationInput"},{"bufferView":1,"byteOffset":33472,"componentType":5126,"count":181,"type":"VEC4","name":"accessorAnimationRotations"},{"bufferView":0,"byteOffset":20680,"componentType":5126,"count":181,"min":[0.0],"max":[6.0],"type":"SCALAR","name":"accessorAnimationInput"},{"bufferView":2,"byteOffset":34764,"componentType":5126,"count":181,"type":"VEC3","name":"accessorAnimationPositions"},{"bufferView":0,"byteOffset":21404,"componentType":5126,"count":181,"min":[0.0],"max":[6.0],"type":"SCALAR","name":"accessorAnimationInput"},{"bufferView":2,"byteOffset":36936,"componentType":5126,"count":181,"type":"VEC3","name":"accessorAnimationPositions"},{"bufferView":0,"byteOffset":22128,"componentType":5126,"count":181,"min":[0.0],"max":[6.0],"type":"SCALAR","name":"accessorAnimationInput"},{"bufferView":1,"byteOffset":36368,"componentType":5126,"count":181,"type":"VEC4","name":"accessorAnimationRotations"},{"bufferView":0,"byteOffset":22852,"componentType":5126,"count":181,"min":[0.0],"max":[6.0],"type":"SCALAR","name":"accessorAnimationInput"},{"bufferView":2,"byteOffset":39108,"componentType":5126,"count":181,"type":"VEC3","name":"accessorAnimationScales"},{"bufferView":0,"byteOffset":23576,"componentType":5126,"count":181,"min":[0.0],"max":[6.0],"type":"SCALAR","name":"accessorAnimationInput"},{"bufferView":2,"byteOffset":41280,"componentType":5126,"count":181,"type":"VEC3","name":"accessorAnimationPositions"},{"bufferView":0,"byteOffset":24300,"componentType":5126,"count":181,"min":[0.0],"max":[6.0],"type":"SCALAR","name":"accessorAnimationInput"},{"bufferView":1,"byteOffset":39264,"componentType":5126,"count":181,"type":"VEC4","name":"accessorAnimationRotations"}],"animations":[{"name":"Beechcraft350i_Board01","channels":[{"sampler":0,"target":{"node":9,"path":"rotation"}},{"sampler":1,"target":{"node":0,"path":"translation"}},{"sampler":2,"target":{"node":0,"path":"rotation"}}],"samplers":[{"input":0,"output":1,"interpolation":"LINEAR"},{"input":2,"output":3,"interpolation":"LINEAR"},{"input":4,"output":5,"interpolation":"LINEAR"}]},{"name":"Beechcraft350i_Throttle","channels":[{"sampler":0,"target":{"node":13,"path":"translation"}},{"sampler":1,"target":{"node":13,"path":"rotation"}},{"sampler":2,"target":{"node":4,"path":"translation"}},{"sampler":3,"target":{"node":4,"path":"rotation"}},{"sampler":4,"target":{"node":4,"path":"scale"}}],"samplers":[{"input":6,"output":7,"interpolation":"LINEAR"},{"input":8,"output":9,"interpolation":"LINEAR"},{"input":10,"output":11,"interpolation":"LINEAR"},{"input":12,"output":13,"interpolation":"LINEAR"},{"input":14,"output":15,"interpolation":"LINEAR"}]},{"name":"Beechcraft350i_Overhead","channels":[{"sampler":0,"target":{"node":10,"path":"translation"}},{"sampler":1,"target":{"node":10,"path":"rotation"}},{"sampler":2,"target":{"node":1,"path":"translation"}}],"samplers":[{"input":16,"output":17,"interpolation":"LINEAR"},{"input":18,"output":19,"interpolation":"LINEAR"},{"input":20,"output":21,"interpolation":"LINEAR"}]},{"name":"Beechcraft350i_Lowboard","channels":[{"sampler":0,"target":{"node":11,"path":"translation"}},{"sampler":1,"target":{"node":11,"path":"rotation"}},{"sampler":2,"target":{"node":2,"path":"translation"}},{"sampler":3,"target":{"node":2,"path":"rotation"}},{"sampler":4,"target":{"node":2,"path":"scale"}}],"samplers":[{"input":22,"output":23,"interpolation":"LINEAR"},{"input":24,"output":25,"interpolation":"LINEAR"},{"input":26,"output":27,"interpolation":"LINEAR"},{"input":28,"output":29,"interpolation":"LINEAR"},{"input":30,"output":31,"interpolation":"LINEAR"}]},{"name":"Beechcraft350i_Board02","channels":[{"sampler":0,"target":{"node":12,"path":"translation"}},{"sampler":1,"target":{"node":12,"path":"rotation"}},{"sampler":2,"target":{"node":3,"path":"translation"}}],"samplers":[{"input":32,"output":33,"interpolation":"LINEAR"},{"input":34,"output":35,"interpolation":"LINEAR"},{"input":36,"output":37,"interpolation":"LINEAR"}]},{"name":"Beechcraft350i_Seat","channels":[{"sampler":0,"target":{"node":5,"path":"translation"}},{"sampler":1,"target":{"node":5,"path":"rotation"}},{"sampler":2,"target":{"node":5,"path":"scale"}},{"sampler":3,"target":{"node":14,"path":"translation"}},{"sampler":4,"target":{"node":14,"path":"rotation"}}],"samplers":[{"input":38,"output":39,"interpolation":"LINEAR"},{"input":40,"output":41,"interpolation":"LINEAR"},{"input":42,"output":43,"interpolation":"LINEAR"},{"input":44,"output":45,"interpolation":"LINEAR"},{"input":46,"output":47,"interpolation":"LINEAR"}]},{"name":"Beechcraft350i_Yoke","channels":[{"sampler":0,"target":{"node":15,"path":"translation"}},{"sampler":1,"target":{"node":15,"path":"rotation"}},{"sampler":2,"target":{"node":6,"path":"translation"}},{"sampler":3,"target":{"node":6,"path":"rotation"}},{"sampler":4,"target":{"node":6,"path":"scale"}}],"samplers":[{"input":48,"output":49,"interpolation":"LINEAR"},{"input":50,"output":51,"interpolation":"LINEAR"},{"input":52,"output":53,"interpolation":"LINEAR"},{"input":54,"output":55,"interpolation":"LINEAR"},{"input":56,"output":57,"interpolation":"LINEAR"}]},{"name":"Beechcraft350i_Global","channels":[{"sampler":0,"target":{"node":16,"path":"rotation"}},{"sampler":1,"target":{"node":7,"path":"translation"}}],"samplers":[{"input":58,"output":59,"interpolation":"LINEAR"},{"input":60,"output":61,"interpolation":"LINEAR"}]},{"name":"Beechcraft350i_TakeCare","channels":[{"sampler":0,"target":{"node":8,"path":"translation"}},{"sampler":1,"target":{"node":8,"path":"rotation"}},{"sampler":2,"target":{"node":8,"path":"scale"}},{"sampler":3,"target":{"node":17,"path":"translation"}},{"sampler":4,"target":{"node":17,"path":"rotation"}}],"samplers":[{"input":62,"output":63,"interpolation":"LINEAR"},{"input":64,"output":65,"interpolation":"LINEAR"},{"input":66,"output":67,"interpolation":"LINEAR"},{"input":68,"output":69,"interpolation":"LINEAR"},{"input":70,"output":71,"interpolation":"LINEAR"}]}],"asset":{"generator":"babylon.js glTF exporter for 3dsmax 2019 v1.5.0","version":"2.0","extensions":{"ASOBO_asset_optimized":{"MajorVersion":4,"MinorVersion":4},"ASOBO_normal_map_convention":{"tangent_space_convention":"DirectX"}}},"bufferViews":[{"buffer":0,"byteLength":25024,"name":"bufferViewAnimationFloatScalar"},{"buffer":0,"byteLength":42160,"byteOffset":25024,"name":"bufferViewAnimationFloatVec4"},{"buffer":0,"byteLength":43452,"byteOffset":67184,"name":"bufferViewAnimationFloatVec3"}],"nodes":[{"translation":[0.342152178,0.292546481,2.42438483],"rotation":[0.08973116,-0.8170375,0.5539707,0.132342249],"scale":[0.99999994,1.0,1.0],"name":"Beechcraft350i_Board01_TARGET"},{"translation":[1.23273122,0.124712944,11.1770115],"rotation":[-0.0423875563,-0.691226542,0.720246,-0.040679723],"scale":[0.99999994,1.0,1.0],"name":"Beechcraft350i_Overhead_TARGET"},{"translation":[-0.367820919,0.27951476,4.15191841],"rotation":[-0.04238749,-0.6912266,0.720246,-0.04067966],"scale":[1.0,1.0,1.0],"name":"Beechcraft350i_Lowboard_TARGET"},{"translation":[-0.7022503,-0.07625428,4.491292],"rotation":[0.07429917,-0.814205,0.56578964,0.106920928],"scale":[0.9999998,0.99999994,1.00000024],"name":"Beechcraft350i_Board02_TARGET"},{"translation":[0.6567106,-0.9930787,4.15191841],"rotation":[0.0379273,-0.6982636,0.713872,0.0370980352],"scale":[1.0,1.0,1.0],"name":"Beechcraft350i_Throttle_TARGET"},{"translation":[3.45057344,-1.69517136,-3.39965725],"rotation":[0.0742991045,-0.814204931,0.56578964,0.106920823],"scale":[0.9999998,0.99999994,1.00000024],"name":"Beechcraft350i_Seat_TARGET"},{"translation":[0.461066961,0.341980666,2.42438483],"rotation":[0.08973116,-0.8170375,0.5539707,0.132342234],"scale":[1.0,1.0,1.00000012],"name":"Beechcraft350i_Yoke_TARGET"},{"translation":[0.0,-4.2433095,10.7264],"rotation":[0.0497686043,-0.691589832,0.7189818,0.04787251],"scale":[0.99999994,0.99999994,1.0],"name":"Beechcraft350i_Global_TARGET"},{"translation":[1.1292026,-2.82587481,-6.76272],"rotation":[0.539754033,-0.0597284362,0.03843329,0.838821232],"scale":[0.9999999,0.9999999,0.9999999],"name":"Beechcraft350i_TakeCare_TARGET"},{"translation":[-0.0215252042,0.883952856,1.33122671],"rotation":[-0.03756183,-0.95950973,-0.231894374,0.155419648],"scale":[1.0,1.0,1.0],"camera":0,"name":"Beechcraft350i_Board01_CAMERA"},{"translation":[-0.07170165,1.01270783,1.070225],"rotation":[-0.00278634019,-0.996999,-0.04335639,0.06407314],"scale":[0.99999994,1.0,1.0],"camera":1,"name":"Beechcraft350i_Overhead_CAMERA"},{"translation":[0.3452165,0.219876021,1.67747772],"rotation":[-0.00161875784,-0.9901105,0.0114636421,-0.139811143],"scale":[1.0,1.0,0.99999994],"camera":2,"name":"Beechcraft350i_Lowboard_CAMERA"},{"translation":[0.270122349,0.938370943,1.85685146],"rotation":[0.030336909,-0.9696573,-0.169802934,-0.173238426],"scale":[0.9999998,0.9999999,1.00000012],"camera":3,"name":"Beechcraft350i_Board02_CAMERA"},{"translation":[-0.04733683,0.0615466535,1.51747787],"rotation":[-0.0238881521,-0.9746573,-0.181908727,0.127991423],"scale":[0.99999994,1.0,1.0],"camera":4,"name":"Beechcraft350i_Throttle_CAMERA"},{"translation":[0.0126631195,0.7315476,2.24747825],"rotation":[-0.1684877,-0.265867382,-0.0472527668,0.9479946],"scale":[0.9999999,0.9999999,1.0],"camera":5,"name":"Beechcraft350i_Seat_CAMERA"},{"translation":[-0.0915252343,0.583840847,1.72122657],"rotation":[-0.04304734,-0.9368259,-0.124443978,0.324064553],"scale":[1.0,1.0,0.99999994],"camera":6,"name":"Beechcraft350i_Yoke_CAMERA"},{"translation":[0.0,0.836995363,1.23291028],"rotation":[0.0,-0.969972253,-0.24321568,0.0],"scale":[1.0,0.99999994,0.99999994],"camera":7,"name":"Beechcraft350i_Global_CAMERA"},{"translation":[-0.057034336,0.9859252,1.53475463],"rotation":[-0.211256683,-0.06933178,-0.015024621,0.97485286],"scale":[1.0,0.9999999,0.9999999],"camera":8,"name":"Beechcraft350i_TakeCare_CAMERA"}],"scene":0,"scenes":[{"nodes":[0,1,2,3,4,5,6,7,8,9,10,11,12,13,14,15,16,17]}],"cameras":[{"type":"perspective","name":"Beechcraft350i_Board01_CAMERA","perspective":{"zfar":1000.0,"znear":0.001,"yfov":0.7984415}},{"type":"perspective","name":"Beechcraft350i_Overhead_CAMERA","perspective":{"zfar":1000.0,"znear":0.000001,"yfov":0.7984415}},{"type":"perspective","name":"Beechcraft350i_Lowboard_CAMERA","perspective":{"zfar":1000.0,"znear":0.000001,"yfov":0.7984415}},{"type":"perspective","name":"Beechcraft350i_Board02_CAMERA","perspective":{"zfar":1000.0,"znear":0.000001,"yfov":0.7984415}},{"type":"perspective","name":"Beechcraft350i_Throttle_CAMERA","perspective":{"zfar":1000.0,"znear":0.000001,"yfov":0.7984415}},{"type":"perspective","name":"Beechcraft350i_Seat_CAMERA","perspective":{"zfar":1000.0,"znear":0.000001,"yfov":0.7984415}},{"type":"perspective","name":"Beechcraft350i_Yoke_CAMERA","perspective":{"zfar":1000.0,"znear":0.000001,"yfov":0.7984415}},{"type":"perspective","name":"Beechcraft350i_Global_CAMERA","perspective":{"zfar":1000.0,"znear":0.000001,"yfov":0.7984415}},{"type":"perspective","name":"Beechcraft350i_TakeCare_CAMERA","perspective":{"zfar":10000.0,"znear":0.1,"yfov":0.798761368}}],"extensionsUsed":["ASOBO_normal_map_convention","ASOBO_asset_optimized"],"buffers":[{"byteLength":110636,"uri":"PlaneShowcase_COCKPIT.bin"}]}
