{"accessors":[{"bufferView":0,"componentType":5126,"count":181,"min":[0.0],"max":[6.0],"type":"SCALAR","name":"accessorAnimationInput"},{"bufferView":1,"componentType":5126,"count":181,"type":"VEC3","name":"accessorAnimationPositions"},{"bufferView":0,"byteOffset":724,"componentType":5126,"count":181,"min":[0.0],"max":[6.0],"type":"SCALAR","name":"accessorAnimationInput"},{"bufferView":2,"componentType":5126,"count":181,"type":"VEC4","name":"accessorAnimationRotations"},{"bufferView":0,"byteOffset":1448,"componentType":5126,"count":181,"min":[0.0],"max":[6.0],"type":"SCALAR","name":"accessorAnimationInput"},{"bufferView":1,"byteOffset":2172,"componentType":5126,"count":181,"type":"VEC3","name":"accessorAnimationPositions"},{"bufferView":0,"byteOffset":2172,"componentType":5126,"count":181,"min":[0.0],"max":[6.0],"type":"SCALAR","name":"accessorAnimationInput"},{"bufferView":2,"byteOffset":2896,"componentType":5126,"count":181,"type":"VEC4","name":"accessorAnimationRotations"},{"bufferView":0,"byteOffset":2896,"componentType":5126,"count":181,"min":[0.0],"max":[6.0],"type":"SCALAR","name":"accessorAnimationInput"},{"bufferView":1,"byteOffset":4344,"componentType":5126,"count":181,"type":"VEC3","name":"accessorAnimationScales"},{"bufferView":0,"byteOffset":3620,"componentType":5126,"count":141,"min":[0.0],"max":[4.66666651],"type":"SCALAR","name":"accessorAnimationInput"},{"bufferView":1,"byteOffset":6516,"componentType":5126,"count":141,"type":"VEC3","name":"accessorAnimationPositions"},{"bufferView":0,"byteOffset":4184,"componentType":5126,"count":141,"min":[0.0],"max":[4.66666651],"type":"SCALAR","name":"accessorAnimationInput"},{"bufferView":2,"byteOffset":5792,"componentType":5126,"count":141,"type":"VEC4","name":"accessorAnimationRotations"}],"animations":[{"name":"Beechcraft350i_WheelsCenter","channels":[{"sampler":0,"target":{"node":4,"path":"translation"}},{"sampler":1,"target":{"node":4,"path":"rotation"}},{"sampler":2,"target":{"node":1,"path":"translation"}},{"sampler":3,"target":{"node":1,"path":"rotation"}},{"sampler":4,"target":{"node":1,"path":"scale"}}],"samplers":[{"input":0,"output":1,"interpolation":"LINEAR"},{"input":2,"output":3,"interpolation":"LINEAR"},{"input":4,"output":5,"interpolation":"LINEAR"},{"input":6,"output":7,"interpolation":"LINEAR"},{"input":8,"output":9,"interpolation":"LINEAR"}]},{"name":"Beechcraft350i_LandingGearLeft","channels":[{"sampler":0,"target":{"node":3,"path":"translation"}},{"sampler":1,"target":{"node":3,"path":"rotation"}}],"samplers":[{"input":10,"output":11,"interpolation":"LINEAR"},{"input":12,"output":13,"interpolation":"LINEAR"}]}],"asset":{"generator":"babylon.jsglTFexporterfor3dsmax2019v1.5.0","version":"2.0","extensions":{"ASOBO_asset_optimized":{"MajorVersion":4,"MinorVersion":4},"ASOBO_normal_map_convention":{"tangent_space_convention":"DirectX"}}},"bufferViews":[{"buffer":0,"byteLength":4748,"name":"bufferViewAnimationFloatScalar"},{"buffer":0,"byteLength":8208,"byteOffset":4748,"name":"bufferViewAnimationFloatVec3"},{"buffer":0,"byteLength":8048,"byteOffset":12956,"name":"bufferViewAnimationFloatVec4"}],"nodes":[{"translation":[1.1670928,-1.07358325,-0.6742487],"rotation":[-0.008726536,0.0,0.0,0.9999619],"scale":[1.0,1.0,1.0],"name":"Beechcraft350i_LandingGearLeft_TARGET"},{"translation":[0.0000015348196,-0.380017817,2.57641935],"rotation":[0.0010934727,-0.82296586,0.5680876,0.00158407015],"scale":[1.0,1.0,1.0],"name":"Beechcraft350i_WheelsCenter_TARGET"},{"translation":[0.0,0.0,0.0],"rotation":[0.0,0.0,0.0,1.0],"scale":[1.0,1.0,1.0],"name":"Defaultlight"},{"translation":[3.02451634,-1.66615129,-4.27850962],"rotation":[-0.0209307,-0.9691972,0.06951898,-0.235341638],"scale":[0.99999994,1.0,1.0],"camera":0,"name":"Beechcraft350i_LandingGearLeft_CAMERA"},{"translation":[0.0,-1.77096784,-7.224099],"rotation":[7.24323357e-9,-0.997516453,0.0704339147,7.823053e-8],"scale":[1.0,1.0,1.0],"camera":1,"name":"Beechcraft350i_WheelsCenter_CAMERA"}],"scene":0,"scenes":[{"nodes":[0,1,2,3,4]}],"cameras":[{"type":"perspective","name":"Beechcraft350i_LandingGearLeft_CAMERA","perspective":{"zfar":1000.0,"znear":0.06999999,"yfov":0.721483648}},{"type":"perspective","name":"Beechcraft350i_WheelsCenter_CAMERA","perspective":{"zfar":10000.0,"znear":0.1,"yfov":0.721483648}}],"extensionsUsed":["ASOBO_normal_map_convention","ASOBO_asset_optimized"],"buffers":[{"byteLength":21004,"uri":"PlaneShowcase_HANGAR.bin"}]}
